<?xml version="1.0" standalone="yes"?>
<svg xmlns="http://www.w3.org/2000/svg" width="145" height="145">
<path style="fill:#fcfaf5; stroke:none;" d="M0 0L0 145L145 145L145 0L0 0z"/>
<path style="fill:#fac344; stroke:none;" d="M17 13L18 13L22 9L22 36L21 36L20 29C13.4219 25.5454 16.4745 20.0266 17 14L16 14C4.92605 40.5986 -0.357761 80.7002 18.3511 106C23.3002 112.693 29.3846 116.27 36 121.011C43.2612 126.214 53.0282 133.166 62 134.779C105.041 142.52 138.041 98.4397 137.709 59C137.577 43.2949 135.482 27.9278 130 13L129 13C130.5 23.2038 133.131 32.9277 135.22 43C135.812 45.8532 138.311 51.0155 134.69 52.9437C129.804 55.5449 129.993 46.7065 128.57 44.5131C121.672 33.8761 126 24.3347 126 12L125 12C124.989 29.1477 115.977 42.947 112.394 59C110.662 66.7548 112 76.0723 112 84C112 90.4259 114.728 105.084 108.772 109.377C104.502 112.455 101.401 107.901 101.059 103.999C100.159 93.7367 100.562 83.2119 101 73L87 79C86.9085 87.1826 83.4933 97.5994 79.9298 104.995C78.3124 108.352 75.1657 111.932 71.1327 109.802C67.9858 108.139 67.0785 104.102 66.0255 101C63.0084 92.1136 59.2566 82.2862 58 73C53.422 73.1179 50.1003 71.0416 48 67L47 67C47.4897 78.4056 49.5376 90.5944 47.6952 102C47.0476 106.009 43.1278 113.079 38.4336 108.638C33.013 103.51 36 80.484 36 73C36 68.8407 37.1058 63.2505 35.9877 59.2593C33.6316 50.8495 26.7227 43.1166 24.2894 34C22.0176 25.4886 24.3683 16.24 22 8L17 13z"/>
<path style="fill:#a3a3b6; stroke:none;" d="M21 9L18 11L22 14L21 9z"/>
<path style="fill:#fac344; stroke:none;" d="M126 9L126 10L126 11L128 12L129 12L126 9z"/>
<path style="fill:#a3a3b6; stroke:none;" d="M127 10L126 14L127 14C127.653 12.0399 128 11.446 128 14L129 14L127 10z"/>
<path style="fill:#c58e37; stroke:none;" d="M18 12C16.3642 17.7646 12.1669 26.5258 20 29L21 36L22 36L20 12L18 12M127 12C124.083 24.2513 122.235 34.756 128.557 45.3248C130.061 47.8394 129.242 54.7106 133.875 53.9398C138.466 53.176 136.423 46.7499 135.706 44C133.179 34.3093 133.06 20.0171 127 12z"/>
<path style="fill:#a3a3b6; stroke:none;" d="M17 13L18 14L17 13M129 16L130 17L129 16M37 60L38 60L38 21L49 20C55.0735 34.6113 58.9919 50.0247 64.1397 65C65.8321 69.9236 66.6184 78.1144 72 80C65.0779 67.4319 62.1109 51.6305 57.6682 38C56.0878 33.1513 55.322 26.2908 52.2585 22.1481C49.4553 18.3576 39.1162 16.8345 37.0718 22.1481C35.8174 25.4084 36.957 29.5968 36.9961 33C37.0943 41.5277 35.222 51.7941 37 60M77 81C85.6738 72.9855 89.5494 49.445 92.7647 38C94.0417 33.4542 95.1335 24.6757 99.3441 21.912C102.16 20.0636 106.791 20.9933 110 21L110 60L112 60C111.234 50.2899 111 40.7644 111 31C111 28.0196 112.073 22.1473 109.397 20.0278C106.137 17.4461 97.6741 18.5519 95.6991 22.2284C90.6202 31.6828 88.6644 43.8081 85.4066 54C82.6269 62.6965 77.9783 71.9283 77 81z"/>
<path style="fill:#2d2f63; stroke:none;" d="M38 21L38 88C38 91.659 35.7312 108.31 41.9105 107.534C47.0669 106.886 45 93.6152 45 90C45 71.0375 44.202 51.8764 45 33L46 33C53.6398 52.4211 59.7167 72.886 65.3634 93C66.447 96.8598 69.2128 112.218 76.2762 106.968C80.7344 103.655 81.8269 93.9882 83.294 89C86.941 76.5998 91.049 64.3677 94.7986 52C96.5066 46.3664 97.6689 39.1224 102 35L102 90C102 98.3071 99.2952 107.873 110 108L110 21C106.642 20.9726 101.385 19.5321 98.5718 21.7816C94.4665 25.0645 93.7388 34.2193 92.1806 39C87.0901 54.6179 83.7103 78.4583 73 91C65.8584 68.526 60.8144 40.3418 49 20L38 21z"/>
<path style="fill:#a3a3b6; stroke:none;" d="M45 33L46 69L47 69L48 44C51.5112 52.2648 52.3448 69.9226 60 75C58.2677 63.8456 52.8976 41.0747 45 33M100 35C94.7372 48.9256 86.6809 67.1338 86 82L87 82L100 41L101 41L101 74L102 74L102 35L100 35z"/>
<path style="fill:#fcfaf5; stroke:none;" d="M100 41L88 80C92.0121 78.5422 97.7108 76.7376 99.9722 72.8117C103.292 67.0491 102.519 47.0024 100 41M48 44C44.9312 54.3821 44.4957 70.9316 57 74L48 44z"/>
<path style="fill:#c58e37; stroke:none;" d="M36 60L37 90L38 90L38 60L36 60M110 60L110 108C97.0701 107.579 102 83.5513 102 74L101 74C99.761 83.8038 99.5506 96.1546 101.148 105.981C101.885 110.514 107.083 112.521 110.258 108.682C113.071 105.28 112 99.0916 112 95L112 60L110 60M45 68L45 106C50.8132 100.307 50.3102 74.1063 45 68M58 75C59.6077 82.6904 63.4202 105.558 70.2785 109.82C80.7477 116.327 86.5526 88.4549 87 82C79.6569 87.123 83.5467 102.193 75.5718 106.928C71.2099 109.518 69.2079 104.042 68.2346 100.996C65.9146 93.737 64.3029 79.6369 58 75z"/>
<path style="fill:#fcfaf5; stroke:none;" d="M27.3333 78.6667L27.6667 79.3333L27.3333 78.6667z"/>
<path style="fill:#fac344; stroke:none;" d="M71 78L72 79L71 78M72 79L77 81L77 80L72 79z"/>
<path style="fill:#c58e37; stroke:none;" d="M69 80L73 91L78 81L69 80z"/>
<path style="fill:#fcfaf5; stroke:none;" d="M127 83L126 88L127 83z"/>
<path style="fill:#fac344; stroke:none;" d="M73.3333 84.6667L73.6667 85.3333L73.3333 84.6667z"/>
<path style="fill:#fcfaf5; stroke:none;" d="M124 89L125 92L124 89z"/>
<path style="fill:#a3a3b6; stroke:none;" d="M37 90L36 99L37 99L37 90z"/>
<path style="fill:#c58e37; stroke:none;" d="M21 91C17.6478 98.0878 21.0416 103.526 24 110L25 110L21 91z"/>
<path style="fill:#fcfaf5; stroke:none;" d="M118 96L119 99L118 96z"/>
<path style="fill:#c58e37; stroke:none;" d="M37 98C35.074 104.531 40.3556 116.652 46 107C37.991 108.231 39.3975 103.699 37 98z"/>
<path style="fill:#fcfaf5; stroke:none;" d="M54 103L55 104L54 103z"/>
<path style="fill:#a3a3b6; stroke:none;" d="M46 105L47 108L46 105z"/>
</svg>
