<svg xmlns="http://www.w3.org/2000/svg" viewBox="0 0 272.12 1032.2" version="1.0"><defs><filter id="b" height="1.05" width="1.965" y="-.025" x="-.482"><feGaussianBlur stdDeviation="4.467"/></filter><filter id="a" height="1.05" width="2.011" y="-.025" x="-.505"><feGaussianBlur stdDeviation="4.467"/></filter><filter id="c" height="1.05" width="2.061" y="-.025" x="-.531"><feGaussianBlur stdDeviation="4.467"/></filter><filter id="d" height="1.045" width="1.777" y="-.023" x="-.388"><feGaussianBlur stdDeviation="5.391"/></filter><filter id="e" height="1.045" width="1.777" y="-.023" x="-.388"><feGaussianBlur stdDeviation="5.391"/></filter><filter id="f" height="1.19" width="1.554" y="-.095" x="-.277"><feGaussianBlur stdDeviation="5.049"/></filter><filter id="j" height="1.118" width="1.866" y="-.059" x="-.433"><feGaussianBlur stdDeviation="3.144"/></filter><filter id="i" height="1.062" width="1.298" y="-.031" x="-.149"><feGaussianBlur stdDeviation="3.144"/></filter><filter id="h"><feGaussianBlur stdDeviation="3.144"/></filter><filter id="g"><feGaussianBlur stdDeviation="3.144"/></filter></defs><path style="fill-rule:evenodd;stroke:#000;stroke-width:1px;fill:#484848" d="M273.75 641.09V326.93h92.94v315.19l-92.94-1.03zM272.74 168.34v-28.28s30.31-101.02 48.49-101.02c18.18.001 45.46 97.99 45.46 97.99v30.3l-93.95 1.01z" transform="translate(-184.43 -38.541)"/><path style="fill-rule:evenodd;stroke:#000;stroke-width:1px;fill:#484848" d="M273.75 325.91V167.32h92.94v159.62l-92.94-1.03z" transform="translate(-184.43 -38.541)"/><path d="m330.32 601.83 16.16 5.05V244.24l-21.21-69.7s5.05 59.6 5.05 70.71 1.01 359.61 0 356.58z" style="fill-rule:evenodd;filter:url(#a);stroke:#5e5e5e;stroke-width:1px;fill:#797979" transform="matrix(.99692 0 0 1.3338 -183.443 -210.001)"/><path d="m309.61 601.83-16.16 5.05V244.24l22.22-69.7s-6.06 59.6-6.06 70.71-1.01 359.61 0 356.58z" style="fill-rule:evenodd;filter:url(#b);stroke:#5e5e5e;stroke-width:1px;fill:#797979" transform="matrix(.99692 0 0 1.3338 -183.443 -210.001)"/><path d="M310.12 299.8v302.03h20.2V245.25s-5.05-73.74-9.09-73.74-10.1 80.81-10.1 80.81l-1.01 47.48z" style="fill-rule:evenodd;filter:url(#c);stroke:#999;stroke-width:1px;fill:#cecece" transform="matrix(1.4357 0 0 1.3332 -323.44 -209.761)"/><path style="fill-rule:evenodd;filter:url(#d);stroke:#7c7c7c;stroke-width:1px;fill:#656565" d="M293.95 636.04V152.18l15.16-83.845-15.16 27.274-17.17 45.461v498l17.17-3.03z" transform="translate(-184.43 -38.541)"/><path style="fill-rule:evenodd;filter:url(#e);stroke:#7c7c7c;stroke-width:1px;fill:#656565" d="M348.5 634.53V150.66l-15.15-83.84 15.15 27.274 17.18 45.456v498.01l-17.18-3.03z" transform="translate(-184.43 -38.541)"/><path style="fill-rule:evenodd;stroke:#000;stroke-width:1px;fill:#555151" d="m299.01 641.09-20.21 35.36h83.84l-21.21-35.36h-42.42z" transform="translate(-184.43 -38.541)"/><path style="fill-rule:evenodd;stroke:#727272;stroke-width:1px;fill:#da0101" d="M282.84 489.57s-126.51 152.4-91.92 161.62c15.15 4.04 44.45-8.08 44.45-8.08l44.44-27.27M358.13 489.16s126.52 152.4 91.93 161.62c-15.15 4.04-44.45-8.08-44.45-8.08l-44.45-27.27M314.16 492.6l-6.06 140.41s1.01 18.18 12.12 18.18 12.12-18.18 12.12-18.18l-8.08-140.41" transform="translate(-184.43 -38.541)"/><path style="filter:url(#f);fill-rule:evenodd;fill:#a60101" d="m279.81 616.85 3.03-124.25s-35.35 43.44-42.42 54.55 16.16 71.72 21.21 72.73 18.18-1.01 18.18-3.03z" transform="translate(-184.43 -38.541)"/><path d="m415.84 771.41 3.03-124.25s-35.36 43.43-42.43 54.54c-7.07 11.12 16.16 71.73 21.21 72.74s18.19-1.01 18.19-3.03z" style="filter:url(#f);fill-rule:evenodd;fill:#a60101" transform="matrix(-1 0 0 1 592.38 -194.241)"/><path style="stroke:#000;stroke-width:1px;fill:none" d="m302.29 642.61-10.36 32.57M336.63 642.61l11.62 31.82M308.35 642.86l-3.03 31.31M330.57 642.35l4.04 30.56M319.46 651.95l.25 19.95" transform="translate(-184.43 -38.541)"/><path style="fill-rule:evenodd;filter:url(#g);stroke:#747474;stroke-width:1px;fill:#e90404" d="M280 675.93s-15.71 55-17.14 94.29S320 1070.2 320 1070.2s61.43-272.12 61.43-307.12-24.29-87.86-24.29-87.86" transform="translate(-184.43 -38.541)"/><path style="fill-rule:evenodd;filter:url(#h);stroke:#747474;stroke-width:1px;fill:#e96804" d="M290.71 676.65s-9.28 72.14-9.28 88.57 37.86 223.57 37.86 223.57S365 780.93 365 763.08c0-17.86-17.86-87.15-17.86-87.15" transform="translate(-184.43 -38.541)"/><path style="fill-rule:evenodd;filter:url(#i);stroke:#747474;stroke-width:1px;fill:#e9b204" d="M309.29 675.93s-11.43 72.86-9.29 87.15c2.14 14.28 19.29 154.28 19.29 154.28s32.14-145 30-156.43c-2.15-11.42-16.43-84.28-16.43-84.28" transform="translate(-184.43 -38.541)"/><path style="fill-rule:evenodd;filter:url(#j);stroke:#747474;stroke-width:1px;fill:#e9e204" d="M317.86 676.65s-3.57 74.28-3.57 77.86c0 3.57 5.71 48.57 5.71 48.57s10.71-40.72 10.71-45.72-7.14-81.43-7.14-81.43" transform="translate(-184.43 -38.541)"/></svg>